<svg width="128" height="128" viewBox="0 0 128 128" fill="none" xmlns="http://www.w3.org/2000/svg">
<g clip-path="url(#clip0_96_4)">
<path fill-rule="evenodd" clip-rule="evenodd" d="M8.66656 55.3334L1.90735e-06 64C1.90735e-06 28.6538 28.6538 5.11152e-06 64 1.90735e-06L55.3334 8.66656C31.3454 12.3934 12.3933 31.3454 8.66656 55.3334ZM8.66656 72.6666L1.90735e-06 64C1.90735e-06 99.3462 28.6538 128 64 128C99.3462 128 128 99.3462 128 64C128 28.6538 99.3462 5.11152e-06 64 1.90735e-06L72.6666 8.66656C96.6546 12.3934 115.607 31.3454 119.333 55.3334L128 64L119.333 72.6666C115.607 96.6546 96.6546 115.607 72.6666 119.333L64 128L55.3334 119.333C31.3454 115.607 12.3933 96.6546 8.66656 72.6666Z" fill="#0095FF"/>
<path fill-rule="evenodd" clip-rule="evenodd" d="M105.584 78.4159C107.15 73.8995 108 69.0491 108 64C108 58.9509 107.15 54.1005 105.584 49.5841L120 64L105.584 78.4159ZM78.4159 105.584C73.8995 107.15 69.0491 108 64 108C58.9509 108 54.1005 107.15 49.5841 105.584L64 120L78.4159 105.584ZM22.4159 78.4159C20.8504 73.8995 20 69.0491 20 64C20 58.9509 20.8504 54.1005 22.4159 49.5841L8 64L22.4159 78.4159ZM49.5841 22.4159L64 8L78.4159 22.4159C73.8995 20.8505 69.0491 20 64 20C58.9509 20 54.1005 20.8505 49.5841 22.4159Z" fill="#0095FF"/>
<path d="M94 64C94.0002 66.7691 93.1792 69.476 91.6409 71.7785C90.1026 74.081 87.916 75.8756 85.3577 76.9353C82.7994 77.995 79.9843 78.2722 77.2685 77.732C74.5526 77.1917 72.0579 75.8581 70.1 73.9L70.0175 73.8125L55.03 56.8875C53.6268 55.5007 51.8448 54.56 49.9083 54.1836C47.9717 53.8073 45.9671 54.0122 44.1466 54.7725C42.3262 55.5328 40.7714 56.8146 39.6778 58.4565C38.5841 60.0985 38.0006 62.0272 38.0006 64C38.0006 65.9728 38.5841 67.9015 39.6778 69.5435C40.7714 71.1854 42.3262 72.4672 44.1466 73.2275C45.9671 73.9878 47.9717 74.1927 49.9083 73.8164C51.8448 73.44 53.6268 72.4993 55.03 71.1125L57.16 68.7075C57.3342 68.5105 57.5454 68.3498 57.7817 68.2344C58.018 68.1191 58.2747 68.0514 58.5371 68.0353C58.7996 68.0192 59.0626 68.0549 59.3113 68.1404C59.5599 68.2259 59.7893 68.3596 59.9863 68.5338C60.1832 68.7079 60.344 68.9192 60.4593 69.1555C60.5747 69.3918 60.6423 69.6484 60.6585 69.9109C60.6746 70.1733 60.6389 70.4364 60.5534 70.685C60.4678 70.9337 60.3342 71.163 60.16 71.36L57.9875 73.8125L57.905 73.9C55.947 75.8578 53.4524 77.191 50.7368 77.7311C48.0211 78.2712 45.2062 77.9938 42.6481 76.9342C40.09 75.8745 37.9036 74.0801 36.3653 71.7778C34.8271 69.4756 34.006 66.7689 34.006 64C34.006 61.2311 34.8271 58.5244 36.3653 56.2222C37.9036 53.9199 40.09 52.1255 42.6481 51.0658C45.2062 50.0062 48.0211 49.7288 50.7368 50.2689C53.4524 50.809 55.947 52.1422 57.905 54.1L57.9875 54.1875L72.975 71.1125C74.3782 72.4993 76.1602 73.44 78.0967 73.8164C80.0333 74.1927 82.0379 73.9878 83.8584 73.2275C85.6788 72.4672 87.2336 71.1854 88.3272 69.5435C89.4209 67.9015 90.0044 65.9728 90.0044 64C90.0044 62.0272 89.4209 60.0985 88.3272 58.4565C87.2336 56.8146 85.6788 55.5328 83.8584 54.7725C82.0379 54.0122 80.0333 53.8073 78.0967 54.1836C76.1602 54.56 74.3782 55.5007 72.975 56.8875L70.845 59.2925C70.4933 59.6903 69.9979 59.9321 69.4679 59.9647C68.9378 59.9973 68.4166 59.818 68.0188 59.4663C67.6209 59.1145 67.3791 58.6191 67.3465 58.0891C67.314 57.5591 67.4933 57.0378 67.845 56.64L70.0175 54.1875L70.1 54.1C72.0579 52.1419 74.5526 50.8083 77.2685 50.2681C79.9843 49.7278 82.7994 50.005 85.3577 51.0647C87.916 52.1244 90.1026 53.919 91.6409 56.2215C93.1792 58.524 94.0002 61.2309 94 64Z" fill="#0095FF"/>
</g>
<defs>
<clipPath id="clip0_96_4">
<rect width="128" height="128" fill="white"/>
</clipPath>
</defs>
</svg>
